# xmcd
#
# Track frame offsets:
#	150
#	21275
#	39894
#	54626
#	73837
#	92275
#	108477
#	127020
#	148321
#
# Disc length: 2238 seconds
# Revision: 0
# Processed by: cddbd v1.5.2PL0 Copyright (c) Steve Scherf et al.
# Submitted via: dBpowerAMP V12.0
#
DISCID=7e08bc09
DTITLE=Nelson King - Blue
DYEAR=2009
DGENRE=Blues
TTITLE0=What The Blues Can Do
TTITLE1=Tough Love
TTITLE2=Crawling Out Of The Wreckage
TTITLE3=The Blues Is On Its Way
TTITLE4=Mumbo Mojo
TTITLE5=Blue
TTITLE6=Did I Give You Too Much
TTITLE7=Clouds Of Steel
TTITLE8=Affairs Of The Heart
EXTD=
EXTT0=
EXTT1=
EXTT2=
EXTT3=
EXTT4=
EXTT5=
EXTT6=
EXTT7=
EXTT8=
PLAYORDER=
